<svg width="80" height="49" viewBox="0 0 80 49" fill="none" xmlns="http://www.w3.org/2000/svg">
    <path
        d="M13.6559 42.3073C14.7149 42.3073 15.5763 42.1715 16.2401 41.8998C16.9198 41.6282 17.4492 41.2767 17.8286 40.8452C18.2079 40.4138 18.4687 39.9264 18.611 39.3832C18.7532 38.8399 18.8243 38.2886 18.8243 37.7294C18.8243 37.0902 18.7374 36.515 18.5635 36.0037C18.4055 35.4923 18.121 35.0609 17.71 34.7093C17.3149 34.3578 16.7854 34.0862 16.1216 33.8945C15.4578 33.7027 14.6201 33.6068 13.6085 33.6068H8.01338V42.3073H13.6559ZM8.01338 19.5615V28.19H12.186C13.0711 28.19 13.8693 28.1261 14.5806 27.9983C15.2918 27.8704 15.8924 27.6467 16.3824 27.3272C16.8882 27.0076 17.2675 26.5682 17.5204 26.0089C17.7891 25.4497 17.9234 24.7466 17.9234 23.8997C17.9234 23.0688 17.8207 22.3817 17.6152 21.8385C17.4097 21.2792 17.0936 20.8318 16.6669 20.4962C16.2401 20.1607 15.6948 19.921 15.031 19.7772C14.383 19.6334 13.6085 19.5615 12.7076 19.5615H8.01338ZM12.7076 13.4976C15.0942 13.4976 17.1252 13.7212 18.8006 14.1687C20.476 14.6161 21.8432 15.2472 22.9021 16.0622C23.9611 16.8771 24.7277 17.8677 25.2018 19.0342C25.6918 20.2006 25.9368 21.5029 25.9368 22.941C25.9368 23.724 25.8262 24.4829 25.6049 25.218C25.3836 25.937 25.0359 26.6161 24.5617 27.2553C24.0875 27.8784 23.479 28.4537 22.7362 28.981C21.9933 29.5083 21.1003 29.9637 20.0572 30.3472C22.3331 30.9064 24.0164 31.8092 25.107 33.0556C26.1976 34.3019 26.7429 35.9158 26.7429 37.8971C26.7429 39.3832 26.4584 40.7653 25.8894 42.0436C25.3204 43.3219 24.4827 44.4405 23.3763 45.3992C22.2857 46.3419 20.9344 47.0849 19.3222 47.6282C17.71 48.1555 15.8687 48.4192 13.7982 48.4192H0V13.4976H12.7076Z"
        fill="#00A39D" />
    <path
        d="M51.3589 20.6202C51.1218 21.0032 50.8689 21.2905 50.6002 21.4821C50.3473 21.6736 50.0154 21.7693 49.6045 21.7693C49.2409 21.7693 48.8458 21.6576 48.419 21.4341C48.0081 21.1947 47.5339 20.9314 46.9965 20.6441C46.475 20.3568 45.8744 20.1015 45.1947 19.878C44.5151 19.6386 43.7406 19.5189 42.8713 19.5189C41.3698 19.5189 40.2476 19.8461 39.5048 20.5005C38.7777 21.1389 38.4142 22.0087 38.4142 23.11C38.4142 23.8123 38.6355 24.3948 39.078 24.8577C39.5206 25.3205 40.0975 25.7196 40.8087 26.0547C41.5358 26.3899 42.3576 26.7011 43.2744 26.9884C44.2069 27.2598 45.1552 27.571 46.1193 27.9221C47.0835 28.2573 48.0239 28.6563 48.9406 29.1192C49.8731 29.582 50.695 30.1726 51.4063 30.8908C52.1333 31.609 52.7181 32.4868 53.1607 33.5243C53.6032 34.5458 53.8245 35.7827 53.8245 37.2351C53.8245 38.8471 53.5479 40.3554 52.9947 41.7599C52.4415 43.1644 51.6355 44.3934 50.5765 45.4468C49.5333 46.4842 48.2373 47.3062 46.6883 47.9127C45.1552 48.5032 43.4087 48.7985 41.4488 48.7985C40.3741 48.7985 39.2756 48.6868 38.1534 48.4633C37.047 48.2399 35.9722 47.9287 34.9291 47.5296C33.8859 47.1147 32.906 46.6279 31.9893 46.0692C31.0725 45.5106 30.2744 44.8882 29.5947 44.2019L31.9655 40.4192C32.1552 40.1479 32.4002 39.9244 32.7005 39.7489C33.0166 39.5573 33.3564 39.4616 33.72 39.4616C34.1941 39.4616 34.6683 39.6132 35.1424 39.9165C35.6324 40.2197 36.1777 40.5549 36.7783 40.922C37.3947 41.2891 38.0981 41.6242 38.8883 41.9275C39.6786 42.2307 40.6111 42.3824 41.6859 42.3824C43.14 42.3824 44.2701 42.0632 45.0762 41.4247C45.8823 40.7704 46.2853 39.7409 46.2853 38.3364C46.2853 37.5224 46.064 36.86 45.6215 36.3493C45.1789 35.8385 44.5941 35.4156 43.8671 35.0804C43.1558 34.7453 42.3418 34.45 41.4251 34.1946C40.5084 33.9392 39.568 33.6599 38.6038 33.3567C37.6397 33.0375 36.6993 32.6544 35.7826 32.2075C34.8659 31.7447 34.044 31.1462 33.3169 30.412C32.6057 29.6618 32.0288 28.7361 31.5862 27.6348C31.1437 26.5176 30.9224 25.145 30.9224 23.517C30.9224 22.2083 31.1832 20.9314 31.7048 19.6865C32.2263 18.4416 32.9929 17.3323 34.0045 16.3587C35.016 15.3851 36.2567 14.611 37.7266 14.0364C39.1965 13.4459 40.8798 13.1506 42.7765 13.1506C43.8355 13.1506 44.8628 13.2384 45.8586 13.414C46.8701 13.5736 47.8263 13.821 48.7273 14.1562C49.6282 14.4754 50.4659 14.8664 51.2403 15.3293C52.0306 15.7761 52.7339 16.2869 53.3503 16.8615L51.3589 20.6202Z"
        fill="#00A39D" />
    <path fill-rule="evenodd" clip-rule="evenodd"
        d="M80 12.0531C73.8472 11.4538 71.6838 14.8417 70.4768 16.5174C68.9374 9.81814 66.3344 10.3464 63.5493 8.65876C67.5745 6.32244 68.7003 2.69017 68.5895 0C72.5322 2.89069 75.2813 2.58051 78.6859 1.64317C76.9918 6.69852 78.0615 8.12541 80 12.0531Z"
        fill="#F8AD3C" />
    <path
        d="M67.1317 48.4337H58.7986V12.7217C64.0132 13.4282 67.1399 17.7411 67.1317 22.3059V48.4337Z"
        fill="#00A39D" />
</svg>
