<svg width="80" height="33" viewBox="0 0 80 33" fill="none" xmlns="http://www.w3.org/2000/svg">
    <path
        d="M35.2641 7.26395H37.9831C38.9248 7.26395 39.6232 7.45635 39.6232 8.49208C39.6232 9.55493 38.5628 9.86514 37.7221 9.86514H34.7318L35.2641 7.26395ZM27.3936 20.3377H37.261C41.0242 20.3377 44.3458 18.696 44.3458 14.5505C44.3458 12.9639 43.3372 11.4425 41.7429 11.1043V11.0585H41.7667C43.8415 10.5068 44.9239 9.08199 44.9239 6.9156C44.9239 4.42967 43.5271 3.13035 39.7918 3.13035H30.9601L27.3936 20.3377ZM34.08 13.0715H36.9931C38.1035 13.0715 39.0477 13.2639 39.0477 14.5454C39.0477 15.9405 37.7475 16.2753 36.8033 16.2753H33.4037L34.08 13.0715Z"
        fill="#0069AB" />
    <path
        d="M48.8641 20.3377H54.1615L56.8144 7.53764H61.5853L62.5049 3.13027H47.6572L46.7427 7.53764H51.5136L48.8641 20.3377Z"
        fill="#0069AB" />
    <path
        d="M60.8125 20.3377H65.8479L67.8473 10.6982H67.8948L71.0503 20.3377H76.2561L79.8735 3.13027H74.833L72.9065 12.529H72.8607L69.6315 3.13027H64.3748L60.8125 20.3377Z"
        fill="#0069AB" />
    <path
        d="M25.4316 32.2063C25.5901 31.6207 25.5249 31.6241 25.9165 30.0442C26.1978 28.4872 27.9125 26.1021 30.9358 25.8572C31.9664 25.7343 71.5429 24.0527 79.9999 23.4603L79.7465 24.9232C71.7785 25.953 35.7279 30.8401 25.4316 32.2063Z"
        fill="#E31C24" />
    <path
        d="M8.12769 20.3401V23.4651L10.8374 21.9004L13.5479 23.4651V20.3401L10.8374 18.7729L8.12769 20.3401Z"
        fill="#A68561" />
    <path
        d="M18.9654 20.34V17.2065L10.8364 12.5135L2.7124 17.2065V20.34L10.8364 15.6419L18.9654 20.34Z"
        fill="#A68561" />
    <path
        d="M0 6.25762L10.8379 0L21.6775 6.25762V18.7728L18.9669 20.34V7.82477L10.8379 3.12923L2.71138 7.82477V20.34L0 18.7728V6.25762Z"
        fill="#0069AB" />
    <path
        d="M10.8365 6.25762L16.2559 9.3877V21.9012L13.5479 23.4633V10.9498L10.8365 9.3877L8.12853 10.9498V23.4633L5.42139 21.9012V9.3877L10.8365 6.25762Z"
        fill="#0069AB" />
</svg>
