<svg width="80" height="21" viewBox="0 0 80 21" fill="none" xmlns="http://www.w3.org/2000/svg">
    <path
        d="M1.91498 12.8532H2.77972C3.27331 12.8532 3.67199 12.8926 4.11166 13.4002C4.42275 13.7511 4.76472 14.5266 4.76472 15.781C4.76472 16.2314 4.76801 16.6772 4.68274 17.1354C4.54574 17.8581 4.21218 19.0165 2.30468 19.0165C1.79425 19.0165 1.91498 19.0033 1.91498 19.0033V12.8541V12.8532ZM2.89596 20.0857C5.46326 20.0857 6.61269 18.9402 6.61269 15.8114C6.61269 14.9842 6.36955 13.5978 5.59915 12.7521C4.80234 11.884 3.77194 11.7756 2.90157 11.7756H0.0400391V20.0857H2.89596Z"
        fill="#046148" />
    <path
        d="M10.9986 17.9333C10.9986 18.2084 10.9907 18.5779 10.6988 18.8424C10.4539 19.0579 10.1092 19.0743 9.97778 19.0743C9.6521 19.0743 9.35897 18.9558 9.23543 18.5532C9.20456 18.4263 9.19216 18.2983 9.19216 18.1759C9.19216 17.5688 9.59478 17.3134 10.0423 17.2044C10.2769 17.1501 10.4348 17.1398 10.9986 17.0928V17.9334L10.9986 17.9333ZM10.9986 16.3436L10.0631 16.4357C9.0552 16.5512 8.66943 16.6433 8.23817 16.9298C7.54187 17.4032 7.5329 18.0955 7.5329 18.323C7.5329 18.8907 7.7052 19.318 7.94001 19.5639C8.24939 19.9244 8.73961 20.0564 9.21298 20.0564C10.3737 20.0564 10.9273 19.5291 10.9273 19.5291L10.9353 19.9042H12.5002V15.973C12.5002 15.5305 12.5108 14.9083 12.0033 14.4681C11.7377 14.2406 11.5052 14.1357 11.1458 14.0846C10.7887 14.0204 10.6646 13.9946 10.3164 13.9946C9.26079 13.9946 8.46454 14.1803 8.01083 14.9879C7.8161 15.3378 7.82612 15.6887 7.82612 15.9571H9.26082C9.27402 15.7231 9.28455 15.399 9.46742 15.1738C9.56003 15.0458 9.77682 14.8633 10.1783 14.8633C10.3092 14.8633 10.6893 14.8633 10.883 15.18C10.991 15.3671 10.9999 15.6101 10.9999 15.8858V16.3435L10.9986 16.3436Z"
        fill="#046148" />
    <path
        d="M23.4575 17.9333C23.4575 18.2084 23.4496 18.5779 23.1554 18.8424C22.9169 19.0579 22.5708 19.0743 22.431 19.0743C22.1076 19.0743 21.819 18.9558 21.6938 18.5532C21.6624 18.4263 21.6534 18.2983 21.6534 18.1759C21.6534 17.5688 22.0537 17.3134 22.5035 17.2044C22.7381 17.1501 22.8943 17.1398 23.4576 17.0928V17.9334L23.4575 17.9333ZM23.4575 16.3436L22.5259 16.4357C21.5118 16.5512 21.1317 16.6433 20.6976 16.9298C20.0053 17.4032 19.9946 18.0955 19.9946 18.323C19.9946 18.8907 20.1618 19.318 20.3944 19.5639C20.7083 19.9244 21.2013 20.0564 21.6724 20.0564C22.8359 20.0564 23.3884 19.5291 23.3884 19.5291L23.3964 19.9042H24.9557V15.973C24.9557 15.5305 24.9689 14.9083 24.4644 14.4681C24.1988 14.2406 23.9618 14.1357 23.6069 14.0846C23.2481 14.0204 23.1257 13.9946 22.7753 13.9946C21.7202 13.9946 20.9256 14.1803 20.4691 14.9879C20.2771 15.3378 20.2895 15.6887 20.2895 15.9571H21.7202C21.7334 15.7231 21.7439 15.399 21.9273 15.1738C22.0189 15.0458 22.2356 14.8633 22.6377 14.8633C22.7686 14.8633 23.1481 14.8633 23.3469 15.18C23.4495 15.3671 23.4585 15.6101 23.4585 15.8858V16.3435L23.4575 16.3436Z"
        fill="#046148" />
    <path
        d="M47.0339 19.904H45.401V16.3855C45.401 16.1605 45.401 15.9728 45.3825 15.7813C45.3667 15.5971 45.3139 14.9997 44.602 14.9997C44.4134 14.9997 44.2533 15.0464 44.1511 15.0897C43.6699 15.3102 43.6575 15.7012 43.6457 16.0117V19.9042H42.0095V14.1463H43.6457V14.801C44.0568 14.4332 44.4285 14.0306 45.3466 14.0306C46.1176 14.0306 46.4994 14.3293 46.6572 14.5141C47.0205 14.9223 47.0205 15.4518 47.0345 15.8646V19.9042L47.0339 19.904Z"
        fill="#046148" />
    <path
        d="M18.7931 19.904H17.1613V16.3855C17.1613 16.1605 17.1613 15.9728 17.1344 15.7813C17.1238 15.5971 17.0682 14.9997 16.3522 14.9997C16.1696 14.9997 16.0097 15.0464 15.9075 15.0897C15.4251 15.3102 15.4111 15.7012 15.3976 16.0117V19.9042H13.7625V14.1463H15.3976V14.801C15.8165 14.4332 16.1837 14.0306 17.1007 14.0306C17.8762 14.0306 18.2513 14.3293 18.4136 14.5141C18.7802 14.9223 18.7802 15.4518 18.7932 15.8646V19.9042L18.7931 19.904Z"
        fill="#046148" />
    <path
        d="M26.1555 14.1435H27.7901V14.8134C28.104 14.5332 28.6576 14.0255 29.6392 14.0255C30.7622 14.0255 31.0744 14.696 31.1508 14.9172C31.8196 14.2704 32.2593 14.0255 32.9 14.0255C33.2138 14.0255 33.4289 14.0767 33.6367 14.1525C34.5172 14.4905 34.5362 15.2733 34.5525 15.7809V19.9003H32.8893V16.1481C32.8814 15.7405 32.8682 15.5097 32.7624 15.3289C32.7413 15.2822 32.5787 14.9953 32.1655 14.9953C32.0256 14.9953 31.7589 15.0291 31.6337 15.098C31.1761 15.3164 31.1587 15.6966 31.1508 16.0049V19.9002H29.5302V16.1722C29.5302 15.7291 29.5355 14.9952 28.7975 14.9952C28.6307 14.9952 28.3404 15.0424 28.1972 15.1216C27.7901 15.3725 27.7788 15.7404 27.7901 16.2525V19.9002H26.1555V14.1434V14.1435Z"
        fill="#046148" />
    <path
        d="M39.3799 16.9007C39.3799 17.2275 39.3667 17.5414 39.3326 17.8581C39.2983 18.1759 39.2427 18.8149 38.7532 19.0833C38.6122 19.1506 38.464 19.186 38.3118 19.186C37.3847 19.186 37.301 18.2134 37.2819 17.858C37.2608 17.5929 37.2442 17.3335 37.2442 17.0758C37.2442 16.8454 37.26 16.5254 37.2935 16.1481C37.3268 15.8432 37.3946 15.2598 37.8663 14.9841C38.0275 14.9025 38.1825 14.869 38.3627 14.869C39.2426 14.869 39.3224 15.7922 39.3431 16.1482C39.3669 16.4004 39.3796 16.6541 39.3796 16.9006L39.3799 16.9007ZM41.0467 16.9299C41.0467 16.4189 41.0467 15.4626 40.4785 14.8135C39.7928 13.9948 38.8113 13.9948 38.4637 13.9948C38.0605 13.9948 37.1334 14.0106 36.4057 14.6709C35.5825 15.4048 35.5825 16.5767 35.5825 17.1697C35.5825 18.295 35.8364 19.4849 37.2598 19.9004C37.6742 20.0268 37.8943 20.0492 38.3115 20.0492C38.7018 20.0492 39.6777 20.0492 40.4027 19.2434C41.0467 18.5303 41.0467 17.4611 41.0467 16.9299"
        fill="#046148" />
    <path d="M12.686 5.9104H27.8112L14.3964 1.79587L12.686 2.71477L6.8808 4.21275L12.686 5.9104Z"
        fill="#EF9826" />
    <path d="M0.0401001 0.040072V5.91028H12.6879V2.71463L0.0401001 0.040072Z" fill="#EB712D" />
    <path d="M27.8176 5.9104L12.6861 0.0402231L12.6884 2.71477L27.8177 5.9104H27.8176Z"
        fill="#FEC02B" />
    <path d="M79.96 16.9451V5.90656H59.5878L55.3535 8.9592L59.5878 12.6376L79.96 16.9451Z"
        fill="#EF9826" />
    <path d="M59.5877 12.6377L54.0499 7.86325L27.8193 5.91453L59.5877 16.9519V12.6377Z"
        fill="#FEC02B" />
    <path d="M27.8126 5.90658V5.91184L59.5877 12.6361V5.90791H27.8126V5.90658Z" fill="#EB712D" />
</svg>
